<svg xmlns="http://www.w3.org/2000/svg" xmlns:xlink="http://www.w3.org/1999/xlink" id="body_3" preserveAspectRatio="xMinYMin meet" viewBox="0 0 793 1123"><defs><clipPath id="1"><path id="" clip-rule="evenodd" transform="matrix(1 0 0 1 0 0)" d="M0 842L0 0L0 0L595 0L595 0L595 842L595 842L0 842z" /></clipPath><clipPath id="2"><path id="" clip-rule="evenodd" transform="matrix(1 0 0 1 0 0)" d="M701.972 1041.826L1246.958 1041.826L1246.958 1041.826L1246.958 1092.543L1246.958 1092.543L701.972 1092.543z" /></clipPath><clipPath id="3"><path id="" clip-rule="evenodd" transform="matrix(1 0 0 1 0 0)" d="M701.972 1053.317L1246.958 1053.317L1246.958 1053.317L1246.958 1092.543L1246.958 1092.543L701.972 1092.543z" /></clipPath><clipPath id="4"><path id="" clip-rule="evenodd" transform="matrix(1 0 0 1 0 0)" d="M20.83881 114.253L292.8781 114.253L292.8781 114.253L292.8781 134.9418L292.8781 134.9418L20.83881 134.9418z" /></clipPath><clipPath id="5"><path id="" clip-rule="evenodd" transform="matrix(1 0 0 1 0 0)" d="M292.8214 114.253L434.6392 114.253L434.6392 114.253L434.6392 141.8192L434.6392 141.8192L292.8214 141.8192z" /></clipPath><clipPath id="6"><path id="" clip-rule="evenodd" transform="matrix(1 0 0 1 0 0)" d="M434.5825 114.253L564.1237 114.253L564.1237 114.253L564.1237 141.8192L564.1237 141.8192L434.5825 141.8192z" /></clipPath><clipPath id="7"><path id="" clip-rule="evenodd" transform="matrix(1 0 0 1 0 0)" d="M292.8214 126.8191L434.6392 126.8191L434.6392 126.8191L434.6392 141.8192L434.6392 141.8192L292.8214 141.8192z" /></clipPath><clipPath id="8"><path id="" clip-rule="evenodd" transform="matrix(1 0 0 1 0 0)" d="M434.5825 126.8191L564.1237 126.8191L564.1237 126.8191L564.1237 141.8192L564.1237 141.8192L434.5825 141.8192z" /></clipPath><clipPath id="9"><path id="" clip-rule="evenodd" transform="matrix(1 0 0 1 0 0)" d="M20.88377 150.3392L63.37156 150.3392L63.37156 150.3392L63.37156 165.9144L63.37156 165.9144L20.88377 165.9144z" /></clipPath><clipPath id="10"><path id="" clip-rule="evenodd" transform="matrix(1 0 0 1 0 0)" d="M23.67392 151.6685L60.58833 151.6685L60.58833 151.6685L60.58833 164.5459L60.58833 164.5459L23.67392 164.5459z" /></clipPath><clipPath id="11"><path id="" clip-rule="evenodd" transform="matrix(1 0 0 1 0 0)" d="M63.37156 150.3392L288.8929 150.3392L288.8929 150.3392L288.8929 165.9144L288.8929 165.9144L63.37156 165.9144z" /></clipPath><clipPath id="12"><path id="" clip-rule="evenodd" transform="matrix(1 0 0 1 0 0)" d="M66.20203 151.6685L286.1291 151.6685L286.1291 151.6685L286.1291 164.5459L286.1291 164.5459L66.20203 164.5459z" /></clipPath><clipPath id="13"><path id="" clip-rule="evenodd" transform="matrix(1 0 0 1 0 0)" d="M288.8929 150.3392L317.4581 150.3392L317.4581 150.3392L317.4581 165.9144L317.4581 165.9144L288.8929 165.9144z" /></clipPath><clipPath id="14"><path id="" clip-rule="evenodd" transform="matrix(1 0 0 1 0 0)" d="M291.7428 151.6685L314.6513 151.6685L314.6513 151.6685L314.6513 164.5459L314.6513 164.5459L291.7428 164.5459z" /></clipPath><clipPath id="15"><path id="" clip-rule="evenodd" transform="matrix(1 0 0 1 0 0)" d="M317.4581 150.3392L347.7037 150.3392L347.7037 150.3392L347.7037 165.9144L347.7037 165.9144L317.4581 165.9144z" /></clipPath><clipPath id="16"><path id="" clip-rule="evenodd" transform="matrix(1 0 0 1 0 0)" d="M320.265 151.6685L344.8746 151.6685L344.8746 151.6685L344.8746 164.5459L344.8746 164.5459L320.265 164.5459z" /></clipPath><clipPath id="17"><path id="" clip-rule="evenodd" transform="matrix(1 0 0 1 0 0)" d="M445.1615 150.3392L503.8523 150.3392L503.8523 150.3392L503.8523 165.9144L503.8523 165.9144L445.1615 165.9144z" /></clipPath><clipPath id="18"><path id="" clip-rule="evenodd" transform="matrix(1 0 0 1 0 0)" d="M447.906 151.6685L501.0662 151.6685L501.0662 151.6685L501.0662 164.5459L501.0662 164.5459L447.906 164.5459z" /></clipPath><clipPath id="19"><path id="" clip-rule="evenodd" transform="matrix(1 0 0 1 0 0)" d="M503.8523 150.3392L564.1033 150.3392L564.1033 150.3392L564.1033 165.9144L564.1033 165.9144L503.8523 165.9144z" /></clipPath><clipPath id="20"><path id="" clip-rule="evenodd" transform="matrix(1 0 0 1 0 0)" d="M506.6799 151.6685L561.286 151.6685L561.286 151.6685L561.286 164.5459L561.286 164.5459L506.6799 164.5459z" /></clipPath><clipPath id="21"><path id="" clip-rule="evenodd" transform="matrix(1 0 0 1 0 0)" d="M20.88382 165.9141L63.37171 165.9141L63.37171 165.9141L63.37171 181.6091L63.37171 181.6091L20.88382 181.6091z" /></clipPath><clipPath id="22"><path id="" clip-rule="evenodd" transform="matrix(1 0 0 1 0 0)" d="M23.67398 167.3191L60.58848 167.3191L60.58848 167.3191L60.58848 180.1965L60.58848 180.1965L23.67398 180.1965z" /></clipPath><clipPath id="23"><path id="" clip-rule="evenodd" transform="matrix(1 0 0 1 0 0)" d="M63.37171 165.9141L288.8936 165.9141L288.8936 165.9141L288.8936 181.6091L288.8936 181.6091L63.37171 181.6091z" /></clipPath><clipPath id="24"><path id="" clip-rule="evenodd" transform="matrix(1 0 0 1 0 0)" d="M66.20219 167.3191L286.1298 167.3191L286.1298 167.3191L286.1298 180.1965L286.1298 180.1965L66.20219 180.1965z" /></clipPath><clipPath id="25"><path id="" clip-rule="evenodd" transform="matrix(1 0 0 1 0 0)" d="M445.1626 165.9141L503.8535 165.9141L503.8535 165.9141L503.8535 181.6091L503.8535 181.6091L445.1626 181.6091z" /></clipPath><clipPath id="26"><path id="" clip-rule="evenodd" transform="matrix(1 0 0 1 0 0)" d="M447.9071 167.3191L501.0674 167.3191L501.0674 167.3191L501.0674 180.1965L501.0674 180.1965L447.9071 180.1965z" /></clipPath><clipPath id="27"><path id="" clip-rule="evenodd" transform="matrix(1 0 0 1 0 0)" d="M503.8535 165.9141L564.1047 165.9141L564.1047 165.9141L564.1047 181.6091L564.1047 181.6091L503.8535 181.6091z" /></clipPath><clipPath id="28"><path id="" clip-rule="evenodd" transform="matrix(1 0 0 1 0 0)" d="M506.6811 167.3191L561.2874 167.3191L561.2874 167.3191L561.2874 180.1965L561.2874 180.1965L506.6811 180.1965z" /></clipPath><clipPath id="29"><path id="" clip-rule="evenodd" transform="matrix(1 0 0 1 0 0)" d="M629.8726 712.5026L1151.893 712.5026L1151.893 712.5026L1151.893 727.1065L1151.893 727.1065L629.8726 727.1065z" /></clipPath><clipPath id="30"><path id="" clip-rule="evenodd" transform="matrix(1 0 0 1 0 0)" d="M24.2268 823.8466L567.945 823.8466L567.945 823.8466L567.945 16.91602L567.945 16.91602L24.2268 16.91602z" /></clipPath><clipPath id="31"><path id="" clip-rule="evenodd" transform="matrix(1 0 0 1 0 0)" d="M24.2268 823.8466L567.945 823.8466L567.945 823.8466L567.945 16.91602L567.945 16.91602L24.2268 16.91602z" /></clipPath><clipPath id="32"><path id="" clip-rule="evenodd" transform="matrix(1 0 0 1 0 0)" d="M10.39479 11.31604L570.6949 11.31604L570.6949 11.31604L570.6949 817.3158L570.6949 817.3158L10.39479 817.3158z" /></clipPath><clipPath id="33"><path id="" clip-rule="evenodd" transform="matrix(1 0 0 1 0 0)" d="M10.39479 11.31604L570.6949 11.31604L570.6949 11.31604L570.6949 817.3158L570.6949 817.3158L10.39479 817.3158z" /></clipPath><clipPath id="34"><path id="" clip-rule="evenodd" transform="matrix(1 0 0 1 0 0)" d="M34.39481 794.4158L442.3949 794.4158L442.3949 794.4158L442.3949 817.3158L442.3949 817.3158L34.39481 817.3158z" /></clipPath><clipPath id="35"><path id="" clip-rule="evenodd" transform="matrix(1 0 0 1 0 0)" d="M10.39479 11.31604L570.6949 11.31604L570.6949 11.31604L570.6949 817.3158L570.6949 817.3158L10.39479 817.3158z" /></clipPath><clipPath id="36"><path id="" clip-rule="evenodd" transform="matrix(1 0 0 1 0 0)" d="M34.39481 794.4158L442.3949 794.4158L442.3949 794.4158L442.3949 817.3158L442.3949 817.3158L34.39481 817.3158z" /></clipPath><clipPath id="37"><path id="" clip-rule="evenodd" transform="matrix(1 0 0 1 0 0)" d="M10.39479 11.31604L570.6949 11.31604L570.6949 11.31604L570.6949 817.3158L570.6949 817.3158L10.39479 817.3158z" /></clipPath></defs><g transform="matrix(1.333333 0 0 1.333333 0 0)"><g clip-path="url(#1)"><g clip-path="url(#2)"></g><g clip-path="url(#3)"></g><g clip-path="url(#4)"></g><g clip-path="url(#5)"></g><g clip-path="url(#6)"></g><g clip-path="url(#7)"></g><g clip-path="url(#8)"></g><g clip-path="url(#9)"><g clip-path="url(#10)"></g></g><g clip-path="url(#11)"><g clip-path="url(#12)"></g></g><g clip-path="url(#13)"><g clip-path="url(#14)"></g></g><g clip-path="url(#15)"><g clip-path="url(#16)"></g></g><g clip-path="url(#17)"><g clip-path="url(#18)"></g></g><g clip-path="url(#19)"><g clip-path="url(#20)"></g></g><path id="297" transform="matrix(1 0 0 -1 0 842)" d="M20.86716 691.7184L63.39546 691.7184L63.39546 691.7184L288.9372 691.7184L288.9372 691.7184L317.4595 691.7184L317.4595 691.7184L347.683 691.7184L347.683 691.7184L398.9154 691.7184L398.9154 691.7184L445.1011 691.7184L445.1011 691.7184L503.8752 691.7184L503.8752 691.7184L564.0953 691.7184" stroke="#000000" stroke-width="0.1200149" fill="none" /><g clip-path="url(#21)"><g clip-path="url(#22)"></g></g><g clip-path="url(#23)"><g clip-path="url(#24)"></g></g><g clip-path="url(#25)"><g clip-path="url(#26)"></g></g><g clip-path="url(#27)"><g clip-path="url(#28)"></g></g><path id="321" transform="matrix(1 0 0 -1 0 842)" d="M20.86716 660.4163L63.39546 660.4163L63.39546 660.4163L288.9372 660.4163L288.9372 660.4163L398.9154 660.4163L398.9154 660.4163L445.1011 660.4163L445.1011 660.4163L503.8752 660.4163L503.8752 660.4163L564.0953 660.4163" stroke="#000000" stroke-width="0.1200149" fill="none" /><g clip-path="url(#29)"></g><g clip-path="url(#30)"><g clip-path="url(#31)"><g clip-path="url(#32)"><g transform="matrix(0.08925004 0 0 0.09001476 389.4449 16.91602)"><g transform="matrix(1 0 0 1 0 0)"><image x="0" y="0" xlink:href="img_01.png" width="2000" height="676" /></g></g></g><g clip-path="url(#33)"><g clip-path="url(#34)"></g></g><g clip-path="url(#35)"><g clip-path="url(#36)"></g></g><g clip-path="url(#37)"></g><path id="1805" transform="matrix(1 0 0 -1 0 842)" d="M28.44795 100.8973L552.4246 100.8973" stroke="#E23449" stroke-width="2.310914" fill="none" /></g></g></g></g></svg>