<svg xmlns="http://www.w3.org/2000/svg" xmlns:xlink="http://www.w3.org/1999/xlink" id="body_1" preserveAspectRatio="xMinYMin meet" viewBox="0 0 793 1123"><defs><clipPath id="1"><path id="" clip-rule="evenodd" transform="matrix(1 0 0 1 0 0)" d="M0 842L0 0L0 0L595 0L595 0L595 842L595 842L0 842z" /></clipPath><clipPath id="2"><path id="" clip-rule="evenodd" transform="matrix(1 0 0 1 0 0)" d="M23.2163 826.8781L566.9341 826.8781L566.9341 826.8781L566.9341 19.94696L566.9341 19.94696L23.2163 19.94696z" /></clipPath><clipPath id="3"><path id="" clip-rule="evenodd" transform="matrix(1 0 0 1 0 0)" d="M23.2163 826.8781L566.9341 826.8781L566.9341 826.8781L566.9341 19.94696L566.9341 19.94696L23.2163 19.94696z" /></clipPath><clipPath id="4"><path id="" clip-rule="evenodd" transform="matrix(1 0 0 1 0 0)" d="M9.384306 14.34698L569.684 14.34698L569.684 14.34698L569.684 820.3473L569.684 820.3473L9.384306 820.3473z" /></clipPath><clipPath id="5"><path id="" clip-rule="evenodd" transform="matrix(1 0 0 1 0 0)" d="M9.384306 14.34698L569.684 14.34698L569.684 14.34698L569.684 820.3473L569.684 820.3473L9.384306 820.3473z" /></clipPath><clipPath id="6"><path id="" clip-rule="evenodd" transform="matrix(1 0 0 1 0 0)" d="M33.38429 797.4473L441.3841 797.4473L441.3841 797.4473L441.3841 820.3473L441.3841 820.3473L33.38429 820.3473z" /></clipPath><clipPath id="7"><path id="" clip-rule="evenodd" transform="matrix(1 0 0 1 0 0)" d="M9.384306 14.34698L569.684 14.34698L569.684 14.34698L569.684 820.3473L569.684 820.3473L9.384306 820.3473z" /></clipPath><clipPath id="8"><path id="" clip-rule="evenodd" transform="matrix(1 0 0 1 0 0)" d="M33.38429 797.4473L441.3841 797.4473L441.3841 797.4473L441.3841 820.3473L441.3841 820.3473L33.38429 820.3473z" /></clipPath><clipPath id="9"><path id="" clip-rule="evenodd" transform="matrix(1 0 0 1 0 0)" d="M9.384306 14.34698L569.684 14.34698L569.684 14.34698L569.684 820.3473L569.684 820.3473L9.384306 820.3473z" /></clipPath></defs><g transform="matrix(1.333333 0 0 1.333333 0 0)"><g clip-path="url(#1)"><path id="185" transform="matrix(1 0 0 -1 0 842)" d="M18.84513 482.1859L61.37133 482.1859L61.37133 482.1859L286.9019 482.1859L286.9019 482.1859L315.4229 482.1859L315.4229 482.1859L345.6448 482.1859L345.6448 482.1859L396.8747 482.1859L396.8747 482.1859L443.0581 482.1859L443.0581 482.1859L501.8293 482.1859L501.8293 482.1859L562.0465 482.1859" stroke="#000000" stroke-width="0.1200089" fill="none" /><path id="209" transform="matrix(1 0 0 -1 0 842)" d="M18.84513 450.8804L61.37133 450.8804L61.37133 450.8804L286.9019 450.8804L286.9019 450.8804L396.8747 450.8804L396.8747 450.8804L443.0581 450.8804L443.0581 450.8804L501.8293 450.8804L501.8293 450.8804L562.0465 450.8804" stroke="#000000" stroke-width="0.1200089" fill="none" /><g clip-path="url(#2)"><g clip-path="url(#3)"><g clip-path="url(#4)"><g transform="matrix(0.08924996 0 0 0.09001482 388.4341 19.94696)"><g transform="matrix(1 0 0 1 0 0)"><image x="0" y="0" xlink:href="img_01.png" width="2000" height="676" /></g></g></g><g clip-path="url(#5)"><g clip-path="url(#6)"></g></g><g clip-path="url(#7)"><g clip-path="url(#8)"></g></g><g clip-path="url(#9)"></g><path id="1622" transform="matrix(1 0 0 -1 0 842)" d="M27.43744 97.86583L551.4136 97.86583" stroke="#E23449" stroke-width="2.310912" fill="none" /></g></g></g></g></svg>