<svg xmlns="http://www.w3.org/2000/svg" xmlns:xlink="http://www.w3.org/1999/xlink" id="body_2" preserveAspectRatio="xMinYMin meet" viewBox="0 0 793 1123"><defs><clipPath id="1"><path id="" clip-rule="evenodd" transform="matrix(1 0 0 1 0 0)" d="M0 842L0 0L0 0L595 0L595 0L595 842L595 842L0 842z" /></clipPath><clipPath id="2"><path id="" clip-rule="evenodd" transform="matrix(1 0 0 1 0 0)" d="M701.9721 1041.826L1246.958 1041.826L1246.958 1041.826L1246.958 1092.543L1246.958 1092.543L701.9721 1092.543z" /></clipPath><clipPath id="3"><path id="" clip-rule="evenodd" transform="matrix(1 0 0 1 0 0)" d="M701.9721 1053.317L1246.958 1053.317L1246.958 1053.317L1246.958 1092.543L1246.958 1092.543L701.9721 1092.543z" /></clipPath><clipPath id="4"><path id="" clip-rule="evenodd" transform="matrix(1 0 0 1 0 0)" d="M20.1847 825.8676L563.9031 825.8676L563.9031 825.8676L563.9031 18.93701L563.9031 18.93701L20.1847 18.93701z" /></clipPath><clipPath id="5"><path id="" clip-rule="evenodd" transform="matrix(1 0 0 1 0 0)" d="M20.1847 825.8676L563.9031 825.8676L563.9031 825.8676L563.9031 18.93701L563.9031 18.93701L20.1847 18.93701z" /></clipPath><clipPath id="6"><path id="" clip-rule="evenodd" transform="matrix(1 0 0 1 0 0)" d="M6.352692 13.33704L566.653 13.33704L566.653 13.33704L566.653 819.3368L566.653 819.3368L6.352692 819.3368z" /></clipPath><clipPath id="7"><path id="" clip-rule="evenodd" transform="matrix(1 0 0 1 0 0)" d="M6.352692 13.33704L566.653 13.33704L566.653 13.33704L566.653 819.3368L566.653 819.3368L6.352692 819.3368z" /></clipPath><clipPath id="8"><path id="" clip-rule="evenodd" transform="matrix(1 0 0 1 0 0)" d="M30.35271 796.4368L438.353 796.4368L438.353 796.4368L438.353 819.3368L438.353 819.3368L30.35271 819.3368z" /></clipPath><clipPath id="9"><path id="" clip-rule="evenodd" transform="matrix(1 0 0 1 0 0)" d="M6.352692 13.33704L566.653 13.33704L566.653 13.33704L566.653 819.3368L566.653 819.3368L6.352692 819.3368z" /></clipPath><clipPath id="10"><path id="" clip-rule="evenodd" transform="matrix(1 0 0 1 0 0)" d="M30.35271 796.4368L438.353 796.4368L438.353 796.4368L438.353 819.3368L438.353 819.3368L30.35271 819.3368z" /></clipPath><clipPath id="11"><path id="" clip-rule="evenodd" transform="matrix(1 0 0 1 0 0)" d="M6.352692 13.33704L566.653 13.33704L566.653 13.33704L566.653 819.3368L566.653 819.3368L6.352692 819.3368z" /></clipPath></defs><g transform="matrix(1.333333 0 0 1.333333 0 0)"><g clip-path="url(#1)"><g clip-path="url(#2)"></g><g clip-path="url(#3)"></g><path id="297" transform="matrix(1 0 0 -1 0 842)" d="M19.85672 665.4446L62.38292 665.4446L62.38292 665.4446L287.9135 665.4446L287.9135 665.4446L316.4344 665.4446L316.4344 665.4446L346.6564 665.4446L346.6564 665.4446L397.8863 665.4446L397.8863 665.4446L444.0697 665.4446L444.0697 665.4446L502.8409 665.4446L502.8409 665.4446L563.0581 665.4446" stroke="#000000" stroke-width="0.1200089" fill="none" /><path id="321" transform="matrix(1 0 0 -1 0 842)" d="M19.85672 634.1425L62.38292 634.1425L62.38292 634.1425L287.9135 634.1425L287.9135 634.1425L397.8863 634.1425L397.8863 634.1425L444.0697 634.1425L444.0697 634.1425L502.8409 634.1425L502.8409 634.1425L563.0581 634.1425" stroke="#000000" stroke-width="0.1200089" fill="none" /><g clip-path="url(#4)"><g clip-path="url(#5)"><g clip-path="url(#6)"><g transform="matrix(0.08925006 0 0 0.09001476 385.4029 18.93701)"><g transform="matrix(1 0 0 1 0 0)"><image x="0" y="0" xlink:href="img_01.png" width="2000" height="676" /></g></g></g><g clip-path="url(#7)"><g clip-path="url(#8)"></g></g><g clip-path="url(#9)"><g clip-path="url(#10)"></g></g><g clip-path="url(#11)"></g><path id="1290" transform="matrix(1 0 0 -1 0 842)" d="M24.40585 98.87628L548.3826 98.87628" stroke="#E23449" stroke-width="2.310915" fill="none" /></g></g></g></g></svg>